<svg width="42" height="46" viewBox="0 0 42 46" fill="none" xmlns="http://www.w3.org/2000/svg">
<path d="M20.4444 46C17.3704 46 14.5741 45.5771 12.0556 44.7314C9.57407 43.9225 7.42593 42.6355 5.61111 40.8705C3.7963 39.1423 2.40741 36.9177 1.44444 34.1966C0.481482 31.4388 0 28.1479 0 24.3237C0 20.8305 0.462963 17.6131 1.38889 14.6715C2.31482 11.693 3.7037 9.1191 5.55556 6.94964C7.44445 4.7434 9.77778 3.03357 12.5556 1.82014C15.3704 0.606714 18.6296 0 22.3333 0C26.5185 0 30.0741 0.753797 33 2.26139C35.9259 3.73222 38.1481 5.97522 39.6667 8.99041C41.2222 11.9688 42 15.701 42 20.187C42 22.4301 41.7963 24.526 41.3889 26.4748C41.0185 28.3869 40.4444 30.0967 39.6667 31.6043C38.8889 33.0751 37.9074 34.2334 36.7222 35.0791C35.537 35.9249 34.1296 36.3293 32.5 36.2926C31.4259 36.2926 30.5 36.1271 29.7222 35.7962C28.9444 35.4652 28.2963 34.9872 27.7778 34.3621C27.2963 33.7002 26.9074 32.9097 26.6111 31.9904C26.3148 31.0711 26.1111 30.0048 26 28.7914C25.4074 30.3357 24.6667 31.6411 23.7778 32.7074C22.9259 33.7738 21.9815 34.5827 20.9444 35.1343C19.9074 35.6859 18.7222 35.9616 17.3889 35.9616C15.9074 35.9616 14.5926 35.5939 13.4444 34.8585C12.2963 34.0863 11.4074 32.8913 10.7778 31.2734C10.1481 29.6187 9.83333 27.486 9.83333 24.8753C9.83333 22.7426 10.0741 20.7754 10.5556 18.9736C11.0741 17.1351 11.8519 15.5172 12.8889 14.1199C13.963 12.6859 15.2778 11.5827 16.8333 10.8106C18.3889 10.0016 20.2222 9.59712 22.3333 9.59712C23.3704 9.59712 24.4074 9.67066 25.4444 9.81775C26.4815 9.96483 27.5185 10.1671 28.5556 10.4245C29.5926 10.6819 30.6481 10.9944 31.7222 11.3621L30.6667 25.6475C30.5556 27.3757 30.6111 28.7178 30.8333 29.6739C31.0556 30.6299 31.4074 31.3102 31.8889 31.7146C32.3704 32.0823 32.9444 32.2662 33.6111 32.2662C34.537 32.303 35.3519 31.8249 36.0556 30.8321C36.7963 29.8026 37.3704 28.4053 37.7778 26.6403C38.1852 24.8385 38.3889 22.8161 38.3889 20.5731C38.3889 16.749 37.8148 13.55 36.6667 10.976C35.5185 8.40208 33.7222 6.47162 31.2778 5.18465C28.8333 3.86091 25.6667 3.19904 21.7778 3.19904C18.7778 3.19904 16.1481 3.73222 13.8889 4.79856C11.6667 5.86491 9.81482 7.35412 8.33333 9.26619C6.85185 11.1783 5.72222 13.4396 4.94445 16.0504C4.2037 18.6611 3.83333 21.4924 3.83333 24.5444C3.83333 27.8905 4.24074 30.7218 5.05556 33.0384C5.90741 35.3181 7.07407 37.1751 8.55556 38.6091C10.0741 40.0064 11.8519 41.0176 13.8889 41.6427C15.9259 42.3046 18.1852 42.6355 20.6667 42.6355C22.6296 42.6355 24.4815 42.4333 26.2222 42.0288C28 41.6243 29.6296 41.0727 31.1111 40.3741L32.0556 43.2422C31.0926 43.757 29.963 44.2166 28.6667 44.6211C27.4074 45.0623 26.0556 45.3933 24.6111 45.6139C23.2037 45.8713 21.8148 46 20.4444 46ZM19.5 30.7218C20.1296 30.7218 20.7407 30.5931 21.3333 30.3357C21.9259 30.0416 22.463 29.5635 22.9444 28.9017C23.4259 28.203 23.8519 27.2654 24.2222 26.0887C24.6296 24.8753 24.963 23.3493 25.2222 21.5108L25.8889 14.506C25.2593 14.2854 24.6111 14.1383 23.9444 14.0647C23.2778 13.9544 22.6667 13.8993 22.1111 13.8993C21.1111 13.8993 20.2407 14.2118 19.5 14.8369C18.7593 15.4253 18.1296 16.2526 17.6111 17.3189C17.0926 18.3485 16.6852 19.5068 16.3889 20.7938C16.1296 22.044 16 23.3677 16 24.765C16 26.1623 16.1481 27.3022 16.4444 28.1847C16.7778 29.0671 17.2037 29.7106 17.7222 30.1151C18.2778 30.5196 18.8704 30.7218 19.5 30.7218Z" fill="url(#paint0_linear)"/>
<defs>
<linearGradient id="paint0_linear" x1="-2.02603" y1="18.4772" x2="42" y2="55" gradientUnits="userSpaceOnUse">
<stop stop-color="#A0F25F"/>
<stop offset="1" stop-color="#1C8821"/>
</linearGradient>
</defs>
</svg>
