<svg width="49" height="49" viewBox="0 0 49 49" fill="none" xmlns="http://www.w3.org/2000/svg">
<path d="M47.099 23.2515L26.1314 2.28383C24.6806 0.833035 22.673 0 20.6197 0H4.45458C1.99891 0 0 1.99776 0 4.45458V20.6186C0 22.6991 0.811319 24.6578 2.28383 26.1314L23.2515 47.099C24.4782 48.3247 26.1095 49 27.8409 49C29.5722 49 31.2035 48.3246 32.4302 47.099L47.0989 32.4303C48.3257 31.2058 48.9999 29.5755 48.9999 27.841C48.9999 26.1064 48.3258 24.476 47.099 23.2515ZM12.0587 13.6339L9.69647 15.9966C9.479 16.2141 9.19398 16.3229 8.90906 16.3229C8.62415 16.3229 8.33923 16.2141 8.12165 15.9966C7.6866 15.5615 7.6866 14.8568 8.12165 14.4219L11.27 11.273C11.27 11.273 11.2706 11.2719 11.2711 11.2713C11.2716 11.2708 11.2721 11.2708 11.2721 11.2708L14.4205 8.12186C14.8381 7.70425 15.5776 7.70425 15.9952 8.12186L19.1448 11.2714C19.5798 11.7064 19.5798 12.4112 19.1448 12.8461C18.7097 13.2812 18.005 13.2812 17.5701 12.8461L15.2079 10.484L13.6332 12.059L15.2079 13.6346C15.643 14.0696 15.643 14.7743 15.2079 15.2093C14.9905 15.4268 14.7054 15.5356 14.4205 15.5356C14.1356 15.5356 13.8507 15.4268 13.6331 15.2093L12.0587 13.6339ZM18.3576 25.7724C18.0727 25.7724 17.7877 25.6636 17.5702 25.4462C17.1351 25.0111 17.1351 24.3053 17.5702 23.8714L19.1471 22.2956C19.5799 21.8617 19.5799 21.1548 19.1471 20.7197L18.3575 19.9334L15.9953 22.2956C15.5603 22.7306 14.8556 22.7306 14.4206 22.2956C13.9856 21.8605 13.9856 21.1558 14.4206 20.7209L17.5419 17.6018C17.5505 17.5909 17.5593 17.5811 17.5702 17.5713C17.5788 17.5615 17.5898 17.5517 17.6007 17.542L20.7219 14.4219C21.1569 13.9868 21.8617 13.9868 22.2966 14.4219L23.8713 15.9966C25.1742 17.2994 25.1742 19.418 23.8713 20.7209C23.2841 21.3081 22.5163 21.6507 21.6919 21.6942C21.6484 22.487 21.3243 23.2668 20.7218 23.8704L19.1449 25.4463C18.9275 25.6636 18.6425 25.7724 18.3576 25.7724ZM25.4462 30.1704C25.8812 30.6055 25.8812 31.3102 25.4462 31.7451C25.2287 31.9626 24.9437 32.0714 24.6587 32.0714C24.3738 32.0714 24.0889 31.9626 23.8713 31.7451L20.7218 28.5956C20.2867 28.1605 20.2867 27.4558 20.7218 27.0209L27.0208 20.7208C27.2296 20.5119 27.5123 20.3945 27.8082 20.3945C28.1041 20.3945 28.3868 20.5119 28.5956 20.7208L31.7451 23.8713C32.1802 24.3064 32.1802 25.0111 31.7451 25.4461C31.3101 25.8811 30.6054 25.8811 30.1704 25.4461L27.8083 23.0829L26.2331 24.6583L27.8083 26.2335C28.2433 26.6685 28.2433 27.3732 27.8083 27.8082C27.5908 28.0257 27.3058 28.1344 27.0209 28.1344C26.736 28.1344 26.451 28.0257 26.2335 27.8082L24.6585 26.2333L23.0839 27.8082L25.4462 30.1704ZM38.0442 31.7451C37.6092 32.1802 36.9044 32.1802 36.4695 31.7451L34.1074 29.383L32.5326 30.9577L34.1074 32.5324C34.5424 32.9675 34.5424 33.6722 34.1074 34.1072C33.8899 34.3246 33.6049 34.4334 33.32 34.4334C33.035 34.4334 32.7501 34.3246 32.5325 34.1072L30.9578 32.5324L29.3831 34.1072L31.7452 36.4703C32.1803 36.9054 32.1803 37.6101 31.7452 38.045C31.5278 38.2625 31.2427 38.3713 30.9578 38.3713C30.6729 38.3713 30.388 38.2625 30.1704 38.045L27.0209 34.8945C26.5858 34.4594 26.5858 33.7547 27.0209 33.3197L33.3198 27.0208C33.7549 26.5857 34.4596 26.5857 34.8946 27.0208L38.0441 30.1703C38.4793 30.6055 38.4793 31.3102 38.0442 31.7451Z" fill="url(#paint0_linear)"/>
<path d="M21.5071 19.4723H21.5093C21.8073 19.4723 22.0857 19.3559 22.2967 19.1461C22.7318 18.7122 22.7318 18.0052 22.2967 17.5713L21.5093 16.7839L19.9346 18.3587L20.722 19.1449C20.9329 19.3571 21.2113 19.4723 21.5071 19.4723Z" fill="url(#paint1_linear)"/>
<defs>
<linearGradient id="paint0_linear" x1="0" y1="24.5" x2="48.9999" y2="24.5" gradientUnits="userSpaceOnUse">
<stop stop-color="#F6D048"/>
<stop offset="1" stop-color="#C85423"/>
</linearGradient>
<linearGradient id="paint1_linear" x1="19.9346" y1="18.1281" x2="22.623" y2="18.1281" gradientUnits="userSpaceOnUse">
<stop stop-color="#F6D048"/>
<stop offset="1" stop-color="#C85423"/>
</linearGradient>
</defs>
</svg>
