<svg width="50" height="49" viewBox="0 0 50 49" fill="none" xmlns="http://www.w3.org/2000/svg">
<path d="M12.3174 48.9999C10.0578 48.9999 7.79825 48.1399 6.07802 46.4197V46.4196L2.58029 42.9219C-0.86008 39.4816 -0.86008 33.8837 2.58019 30.4432L10.5201 22.5033C13.9605 19.063 19.5584 19.063 22.9988 22.5032L26.4965 26.0009C28.1631 27.6676 29.0809 29.8834 29.0809 32.2403C29.0809 34.5972 28.163 36.813 26.4965 38.4797L18.5566 46.4196C16.8366 48.1399 14.5769 48.9999 12.3174 48.9999ZM9.93031 42.5674C11.2466 43.8836 13.3884 43.8837 14.7045 42.5674L22.6444 34.6276C23.2821 33.9899 23.6333 33.1422 23.6333 32.2404C23.6333 31.3387 23.2821 30.491 22.6444 29.8533L19.1467 26.3556C17.8304 25.0394 15.6888 25.0394 14.3725 26.3557L6.43258 34.2955C5.11639 35.6118 5.11639 37.7534 6.43267 39.0697L9.93031 42.5674Z" fill="url(#paint0_linear)"/>
<path d="M32.2407 29.077C29.9811 29.077 27.7215 28.217 26.0014 26.4967L22.5036 22.999C19.0633 19.5586 19.0633 13.9607 22.5035 10.5203L30.4434 2.58038C33.8839 -0.860176 39.4818 -0.86008 42.922 2.58038L46.4198 6.07811C48.0863 7.74473 49.0042 9.96057 49.0042 12.3175C49.0042 14.6745 48.0863 16.8902 46.4198 18.5569L38.48 26.4967C36.7597 28.217 34.5002 29.077 32.2407 29.077ZM36.6827 5.44548C35.8183 5.44548 34.9538 5.77458 34.2956 6.43267L26.3558 14.3726C25.0396 15.6888 25.0396 17.8305 26.3558 19.1468L29.8535 22.6444V22.6445C31.1698 23.9607 33.3114 23.9609 34.6277 22.6445L42.5675 14.7046C43.2051 14.067 43.5563 13.2192 43.5563 12.3175C43.5563 11.4158 43.2052 10.568 42.5675 9.9304L39.0698 6.43267C38.4117 5.77458 37.5472 5.44548 36.6827 5.44548Z" fill="url(#paint1_linear)"/>
<path d="M19.5956 32.1287C18.8984 32.1287 18.2013 31.8627 17.6694 31.3309C16.6056 30.2671 16.6056 28.5424 17.6694 27.4787L27.4789 17.6692C28.5426 16.6054 30.2676 16.6054 31.3311 17.6692C32.3949 18.7329 32.3949 20.4577 31.3311 21.5214L21.5217 31.3309C20.9898 31.8627 20.2927 32.1287 19.5956 32.1287Z" fill="url(#paint2_linear)"/>
<defs>
<linearGradient id="paint0_linear" x1="0.600081" y1="34.4615" x2="28.7116" y2="34.4615" gradientUnits="userSpaceOnUse">
<stop stop-color="#FFADAD"/>
<stop offset="1" stop-color="#D20000"/>
</linearGradient>
<linearGradient id="paint1_linear" x1="20.5234" y1="14.5385" x2="48.6349" y2="14.5385" gradientUnits="userSpaceOnUse">
<stop stop-color="#FFADAD"/>
<stop offset="1" stop-color="#D20000"/>
</linearGradient>
<linearGradient id="paint2_linear" x1="17.1864" y1="24.5" x2="31.9352" y2="24.5" gradientUnits="userSpaceOnUse">
<stop stop-color="#FFADAD"/>
<stop offset="1" stop-color="#D20000"/>
</linearGradient>
</defs>
</svg>
