<svg width="48" height="48" viewBox="0 0 48 48" fill="none" xmlns="http://www.w3.org/2000/svg">
<path d="M15.3794 36.6843C16.6428 36.6157 17.8942 36.4746 19.1301 36.2601V48H15.3794V36.6843ZM0 48H3.7511V36.7342H0V48ZM7.6897 36.7342V48H11.4408V36.7342H7.6897ZM38.3544 48H42.1055V19.4554C41.057 21.4634 39.8038 23.3482 38.3544 25.0929V48ZM30.665 48H34.4158V29.0795C33.23 30.0899 31.9779 31.0083 30.665 31.8321V48ZM22.9753 35.3425V48H26.7264V33.9358C26.525 34.0259 26.3229 34.115 26.1193 34.2012C25.0873 34.6382 24.0381 35.018 22.9753 35.3425ZM40.1093 0L32.1519 7.9659L34.8043 10.6213L38.1028 7.31919C36.7156 19.6266 26.2559 29.2236 13.5974 29.2236H0V32.9789H13.5974C21.1871 32.9789 28.3228 30.0199 33.6896 24.6471C38.447 19.8843 41.3079 13.7292 41.8964 7.09995L45.3475 10.555L48 7.89955L40.1093 0Z" fill="url(#paint0_linear)"/>
<defs>
<linearGradient id="paint0_linear" x1="0.990476" y1="24" x2="47.3905" y2="24" gradientUnits="userSpaceOnUse">
<stop stop-color="#D2614D"/>
<stop offset="1" stop-color="#B532C8"/>
</linearGradient>
</defs>
</svg>
